<svg id="Layer_1" data-name="Layer 1" xmlns="http://www.w3.org/2000/svg" viewBox="0 0 247.5 94.5"><defs><style>.cls-1{fill:none;stroke:#000;stroke-linecap:round;stroke-linejoin:round;stroke-width:5px;}.cls-2{font-size:65.26px;font-family:Impact;}</style></defs><path class="cls-1" d="M4,36.7c0-4.9,5.1-8.9,11.4-8.9H72.6c6.3,0,11.4,4,11.4,8.9v40C84,84,76.3,90,66.9,90H21.1C11.7,90,4,84,4,76.7Z" transform="translate(-1.5 -7.5)"/><path class="cls-1" d="M61.1,27.8V23.3C61.1,16,53.5,10,44,10h0c-9.5,0-17.1,6-17.1,13.3v4.5" transform="translate(-1.5 -7.5)"/><path class="cls-1" d="M26.9,45.6V50c0,7.4,7.6,13.3,17.1,13.3h0c9.5,0,17.1-5.9,17.1-13.3V45.6" transform="translate(-1.5 -7.5)"/><text class="cls-2" transform="translate(92.5 72.9) scale(0.49 1)">SOOQRA ONE</text></svg>